<mxfile host="app.diagrams.net" agent="Mozilla/5.0 (Macintosh; Intel Mac OS X 10_15_7) AppleWebKit/537.36 (KHTML, like Gecko) Chrome/135.0.0.0 Safari/537.36" version="26.2.14">
  <diagram name="第 1 页" id="ieT6CYI6DDhe6jfB1Qd4">
    <mxGraphModel dx="1018" dy="689" grid="1" gridSize="10" guides="1" tooltips="1" connect="1" arrows="1" fold="1" page="1" pageScale="1" pageWidth="827" pageHeight="1169" math="0" shadow="0">
      <root>
        <mxCell id="0" />
        <mxCell id="1" parent="0" />
        <mxCell id="_ElAU_iX84L_jdiKtz5T-3" value="" style="edgeStyle=orthogonalEdgeStyle;rounded=0;orthogonalLoop=1;jettySize=auto;html=1;" edge="1" parent="1" source="_ElAU_iX84L_jdiKtz5T-1" target="_ElAU_iX84L_jdiKtz5T-2">
          <mxGeometry relative="1" as="geometry" />
        </mxCell>
        <mxCell id="_ElAU_iX84L_jdiKtz5T-1" value="replication controller" style="rounded=1;whiteSpace=wrap;html=1;" vertex="1" parent="1">
          <mxGeometry x="280" y="180" width="120" height="50" as="geometry" />
        </mxCell>
        <mxCell id="_ElAU_iX84L_jdiKtz5T-5" value="" style="edgeStyle=orthogonalEdgeStyle;rounded=0;orthogonalLoop=1;jettySize=auto;html=1;" edge="1" parent="1" source="_ElAU_iX84L_jdiKtz5T-2" target="_ElAU_iX84L_jdiKtz5T-4">
          <mxGeometry relative="1" as="geometry" />
        </mxCell>
        <mxCell id="_ElAU_iX84L_jdiKtz5T-2" value="根据自己需要监控的标签查找pod机器" style="rounded=1;whiteSpace=wrap;html=1;fillColor=#f8cecc;strokeColor=#b85450;" vertex="1" parent="1">
          <mxGeometry x="280" y="290" width="120" height="50" as="geometry" />
        </mxCell>
        <mxCell id="_ElAU_iX84L_jdiKtz5T-6" style="edgeStyle=orthogonalEdgeStyle;rounded=0;orthogonalLoop=1;jettySize=auto;html=1;entryX=1;entryY=0.5;entryDx=0;entryDy=0;" edge="1" parent="1" source="_ElAU_iX84L_jdiKtz5T-4" target="_ElAU_iX84L_jdiKtz5T-2">
          <mxGeometry relative="1" as="geometry">
            <Array as="points">
              <mxPoint x="520" y="420" />
              <mxPoint x="520" y="315" />
            </Array>
          </mxGeometry>
        </mxCell>
        <mxCell id="_ElAU_iX84L_jdiKtz5T-10" style="edgeStyle=orthogonalEdgeStyle;rounded=0;orthogonalLoop=1;jettySize=auto;html=1;" edge="1" parent="1" source="_ElAU_iX84L_jdiKtz5T-4" target="_ElAU_iX84L_jdiKtz5T-9">
          <mxGeometry relative="1" as="geometry" />
        </mxCell>
        <mxCell id="_ElAU_iX84L_jdiKtz5T-11" style="edgeStyle=orthogonalEdgeStyle;rounded=0;orthogonalLoop=1;jettySize=auto;html=1;entryX=0.5;entryY=0;entryDx=0;entryDy=0;" edge="1" parent="1" source="_ElAU_iX84L_jdiKtz5T-4" target="_ElAU_iX84L_jdiKtz5T-8">
          <mxGeometry relative="1" as="geometry" />
        </mxCell>
        <mxCell id="_ElAU_iX84L_jdiKtz5T-4" value="真实的pod和&lt;div&gt;期望的是否一致&lt;/div&gt;" style="rhombus;whiteSpace=wrap;html=1;fillColor=#dae8fc;strokeColor=#6c8ebf;" vertex="1" parent="1">
          <mxGeometry x="300" y="380" width="80" height="80" as="geometry" />
        </mxCell>
        <mxCell id="_ElAU_iX84L_jdiKtz5T-7" value="相等" style="text;html=1;align=center;verticalAlign=middle;whiteSpace=wrap;rounded=0;" vertex="1" parent="1">
          <mxGeometry x="370" y="390" width="60" height="30" as="geometry" />
        </mxCell>
        <mxCell id="_ElAU_iX84L_jdiKtz5T-15" style="edgeStyle=orthogonalEdgeStyle;rounded=0;orthogonalLoop=1;jettySize=auto;html=1;entryX=1;entryY=0.5;entryDx=0;entryDy=0;" edge="1" parent="1" source="_ElAU_iX84L_jdiKtz5T-8" target="_ElAU_iX84L_jdiKtz5T-2">
          <mxGeometry relative="1" as="geometry">
            <Array as="points">
              <mxPoint x="520" y="525" />
              <mxPoint x="520" y="315" />
            </Array>
          </mxGeometry>
        </mxCell>
        <mxCell id="_ElAU_iX84L_jdiKtz5T-8" value="减少pod" style="rounded=1;whiteSpace=wrap;html=1;fillColor=#d5e8d4;strokeColor=#82b366;" vertex="1" parent="1">
          <mxGeometry x="369" y="500" width="90" height="50" as="geometry" />
        </mxCell>
        <mxCell id="_ElAU_iX84L_jdiKtz5T-14" style="edgeStyle=orthogonalEdgeStyle;rounded=0;orthogonalLoop=1;jettySize=auto;html=1;entryX=1;entryY=0.5;entryDx=0;entryDy=0;" edge="1" parent="1" source="_ElAU_iX84L_jdiKtz5T-9" target="_ElAU_iX84L_jdiKtz5T-2">
          <mxGeometry relative="1" as="geometry">
            <Array as="points">
              <mxPoint x="275" y="600" />
              <mxPoint x="520" y="600" />
              <mxPoint x="520" y="315" />
            </Array>
          </mxGeometry>
        </mxCell>
        <mxCell id="_ElAU_iX84L_jdiKtz5T-9" value="增加pod" style="rounded=1;whiteSpace=wrap;html=1;fillColor=#d5e8d4;strokeColor=#82b366;" vertex="1" parent="1">
          <mxGeometry x="230" y="500" width="90" height="50" as="geometry" />
        </mxCell>
        <mxCell id="_ElAU_iX84L_jdiKtz5T-12" value="小于" style="text;html=1;align=center;verticalAlign=middle;whiteSpace=wrap;rounded=0;" vertex="1" parent="1">
          <mxGeometry x="220" y="460" width="60" height="30" as="geometry" />
        </mxCell>
        <mxCell id="_ElAU_iX84L_jdiKtz5T-13" value="大于" style="text;html=1;align=center;verticalAlign=middle;whiteSpace=wrap;rounded=0;" vertex="1" parent="1">
          <mxGeometry x="410" y="460" width="60" height="30" as="geometry" />
        </mxCell>
      </root>
    </mxGraphModel>
  </diagram>
</mxfile>
